<?xml version="1.0" encoding="iso-8859-1"?>
<!-- Uploaded to: SVG Repo, www.svgrepo.com, Generator: SVG Repo Mixer Tools -->
<svg fill="#000000" height="800px" width="800px" version="1.1" id="Capa_1" xmlns="http://www.w3.org/2000/svg" xmlns:xlink="http://www.w3.org/1999/xlink" 
	 viewBox="0 0 490.902 490.902" xml:space="preserve">
<g>
	<g>
		<g>
			<path d="M411.7,412.051H73.6h-36c-20.7,0-37.6-16.8-37.6-37.6v-23h30.3h1.6v-238.6c0-18.8,15.2-34,34-34h353.2
				c18.8,0,34,15.2,34,34v71.2l-46.4-15.8v-43H78.4v226.2h118.7v2.3c0,7.1,5.8,12.9,12.9,12.9h65.2c7.1,0,12.9-5.8,12.9-12.9v-2.3
				h118.8v-12.6c8.9-0.1,17.5-3.6,23.9-10l4.1-4.1l15,14.9c1.1,1.1,2.2,2,3.4,2.9v8.8h1.6h30.3v23.1c0,20.7-16.8,37.6-37.6,37.6
				L411.7,412.051L411.7,412.051z M490.1,295.651l-35.4-35.3c-1.1-1.1-1.1-2.8,0-3.9l23.6-23.5c1.4-1.4,0.9-3.9-1-4.5l-99.3-33.8
				c-4.1-1.4-8.1,2.6-6.7,6.7l33.8,99.1c0.7,1.9,3.1,2.5,4.5,1l23.3-23.3c1.1-1.1,2.8-1.1,3.8,0l35.4,35.3c1.1,1.1,2.8,1.1,3.8,0
				l14-14C491.2,298.351,491.2,296.651,490.1,295.651z M242.7,144.851c54.1,0,98.2,44,98.2,98.2c0,54.1-44,98.2-98.2,98.2
				s-98.2-44-98.2-98.2S188.6,144.851,242.7,144.851z M178.7,207.551H198c4-12.9,9.7-23.4,15.7-31.7
				C198.8,182.251,186.5,193.451,178.7,207.551z M194.5,263.751c-1.1-6.4-1.7-13.3-1.7-20.7s0.6-14.3,1.7-20.7h-22
				c-2,6.6-3,13.5-3,20.7s1.1,14.2,3,20.7H194.5z M213.7,310.151c-6-8.3-11.8-18.8-15.7-31.7h-19.3
				C186.5,292.451,198.8,303.751,213.7,310.151z M235.3,278.451h-21.8c5.8,16,14.7,27.3,21.8,34.5V278.451z M235.3,222.251h-25.8
				c-1.2,6.4-2,13.3-2,20.7c0,7.5,0.7,14.4,2,20.7h25.8V222.251z M235.3,172.851c-7.1,7.1-16.1,18.5-21.8,34.6h21.8V172.851z
				 M306.6,278.451h-19.3c-4,12.9-9.7,23.4-15.7,31.7C286.5,303.751,298.8,292.451,306.6,278.451z M290.8,222.251
				c1.1,6.4,1.7,13.3,1.7,20.7s-0.6,14.3-1.7,20.7h22c1.9-6.6,3-13.5,3-20.7s-1.1-14.2-3-20.7L290.8,222.251L290.8,222.251z
				 M271.6,175.751c6,8.3,11.8,18.8,15.7,31.7h19.3C298.8,193.451,286.5,182.251,271.6,175.751z M250,207.551h21.8
				c-5.8-16-14.7-27.3-21.8-34.5V207.551z M250,263.751h25.8c1.2-6.4,2-13.3,2-20.7c0-7.5-0.7-14.4-2-20.7H250V263.751z
				 M250,313.051c7.1-7.1,16.1-18.5,21.8-34.6H250V313.051z"/>
		</g>
	</g>
</g>
</svg>